<?xml version="1.0" encoding="utf-8"?>
<!-- Generator: Adobe Illustrator 22.0.1, SVG Export Plug-In . SVG Version: 6.00 Build 0)  -->
<svg version="1.1" id="Layer_1" xmlns="http://www.w3.org/2000/svg" xmlns:xlink="http://www.w3.org/1999/xlink" x="0px" y="0px"
	 viewBox="0 0 24 24" style="enable-background:new 0 0 24 24;" xml:space="preserve">
<style type="text/css">
	.st0{fill:url(#SVGID_1_);}
</style>
<g>
	<linearGradient id="SVGID_1_" gradientUnits="userSpaceOnUse" x1="5.6776" y1="3.2865" x2="16.8221" y2="22.5893">
		<stop  offset="0" style="stop-color:#A90329"/>
		<stop  offset="1" style="stop-color:#6D0019"/>
	</linearGradient>
	<path class="st0" d="M19.9,13.6c-0.7,0-1.3,0.6-1.3,1.3c0,3.1-2.2,5.7-5.1,6.3v-9.5h5.1c0.7,0,1.3-0.6,1.3-1.3
		c0-0.7-0.6-1.3-1.3-1.3h-5.1V7.6C15,7.1,16,5.7,16,4c0-2.1-1.7-3.9-3.9-3.9S8.3,1.8,8.3,4c0,1.7,1.1,3.1,2.6,3.6v1.5H5.8
		c-0.7,0-1.3,0.6-1.3,1.3c0,0.7,0.6,1.3,1.3,1.3h5.1v9.5C8,20.6,5.8,18,5.8,14.9c0-0.7-0.6-1.3-1.3-1.3s-1.3,0.6-1.3,1.3
		c0,5,4,9,9,9s9-4,9-9C21.2,14.2,20.6,13.6,19.9,13.6z M12.2,2.7c0.7,0,1.3,0.6,1.3,1.3s-0.6,1.3-1.3,1.3S10.9,4.7,10.9,4
		S11.5,2.7,12.2,2.7z"/>
</g>
</svg>
