<?xml version="1.0" encoding="utf-8"?>
<!-- Generator: Adobe Illustrator 22.0.1, SVG Export Plug-In . SVG Version: 6.00 Build 0)  -->
<svg version="1.1" id="Layer_1" xmlns="http://www.w3.org/2000/svg" xmlns:xlink="http://www.w3.org/1999/xlink" x="0px" y="0px"
	 viewBox="0 0 50 50" style="enable-background:new 0 0 50 50;" xml:space="preserve">
<style type="text/css">
	.st0{fill:none;}
	.st1{fill:none;stroke:url(#SVGID_1_);stroke-width:2;stroke-linecap:round;stroke-miterlimit:10;}
	.st2{fill:none;stroke:url(#SVGID_2_);stroke-width:5;stroke-linecap:round;stroke-miterlimit:10;}
	.st3{fill:url(#SVGID_3_);stroke:url(#SVGID_4_);stroke-miterlimit:10;}
</style>
<rect class="st0" width="50" height="50"/>
<linearGradient id="SVGID_1_" gradientUnits="userSpaceOnUse" x1="35" y1="11" x2="43" y2="11">
	<stop  offset="0" style="stop-color:#A90329"/>
	<stop  offset="0.9995" style="stop-color:#6D0019"/>
</linearGradient>
<circle class="st1" cx="39" cy="11" r="3"/>
<linearGradient id="SVGID_2_" gradientUnits="userSpaceOnUse" x1="0.4997" y1="24.9997" x2="49.5" y2="24.9997">
	<stop  offset="0" style="stop-color:#A90329"/>
	<stop  offset="0.9995" style="stop-color:#6D0019"/>
</linearGradient>
<path class="st2" d="M47,5.5C47,4.1,45.9,3,44.5,3c-0.2,0-14.9,0-14.9,0c-1.3,0-2.6-0.1-3.3,0.7L3.6,26.4c-0.7,0.7-0.7,1.9,0,2.7
	l17.4,17.4c0.7,0.7,1.9,0.7,2.7,0l22.7-22.7c0.7-0.7,0.7-2,0.7-3.3C47,20.4,47,5.7,47,5.5z"/>
<g>
	<linearGradient id="SVGID_3_" gradientUnits="userSpaceOnUse" x1="16.159" y1="26.4909" x2="33.3071" y2="26.4909">
		<stop  offset="0" style="stop-color:#A90329"/>
		<stop  offset="0.9995" style="stop-color:#6D0019"/>
	</linearGradient>
	<linearGradient id="SVGID_4_" gradientUnits="userSpaceOnUse" x1="15.5896" y1="26.5058" x2="33.8071" y2="26.5058">
		<stop  offset="0" style="stop-color:#A90329"/>
		<stop  offset="0.9995" style="stop-color:#6D0019"/>
	</linearGradient>
	<path class="st3" d="M22.6,22.4c0.2-0.6,0.4-1.2,0.6-1.7s0.6-1.1,1.2-1.6c0.5-0.5,1.1-0.9,1.7-1.1c0.6-0.2,1.2-0.3,1.9-0.2
		c0.6,0.1,1.2,0.2,1.9,0.5c0.6,0.3,1.2,0.7,1.7,1.2c1.2,1.2,1.8,2.5,1.8,3.9c0,1.4-0.7,2.8-2.2,4.2l-1.4-1.4c0.9-1,1.5-1.9,1.6-2.9
		c0.1-0.9-0.2-1.8-1-2.6c-0.3-0.3-0.7-0.6-1.1-0.8s-0.8-0.3-1.2-0.3c-0.4,0-0.8,0-1.2,0.2c-0.4,0.1-0.7,0.4-1,0.7
		c-0.3,0.3-0.5,0.5-0.6,0.8c-0.2,0.3-0.3,0.6-0.4,0.8s-0.2,0.6-0.3,0.8c-0.1,0.3-0.2,0.6-0.3,0.9l2.6,2.6l-0.7,0.7l-2.3-2.3
		c-0.1,0.3-0.2,0.5-0.3,0.8c-0.1,0.3-0.3,0.5-0.6,0.8c-0.4,0.4-0.8,0.6-1.2,0.8c-0.4,0.2-0.8,0.3-1.2,0.4c-0.4,0.1-0.9,0.1-1.3,0.1
		c-0.4,0-0.9-0.1-1.3-0.1v0.1c0.4,0.2,0.8,0.3,1.2,0.5s0.7,0.4,1,0.7c0.3,0.3,0.6,0.6,0.8,0.9c0.2,0.3,0.4,0.6,0.5,0.9
		c0.2,0.3,0.3,0.6,0.5,0.9c0.2,0.3,0.4,0.6,0.6,0.8c0.3,0.3,0.6,0.5,1,0.6c0.4,0.1,0.8,0.2,1.1,0.3l-0.4,1.8c-0.6,0-1.2-0.2-1.7-0.5
		c-0.5-0.3-1-0.7-1.4-1.1c-0.3-0.3-0.5-0.6-0.7-0.9s-0.4-0.7-0.6-1c-0.2-0.4-0.4-0.7-0.6-1.1c-0.2-0.4-0.5-0.7-0.8-1
		c-0.3-0.3-0.7-0.6-1-0.7c-0.4-0.2-0.8-0.3-1.2-0.4l0.3-1.8c0.4,0.1,0.8,0.1,1.2,0.1c0.4,0,0.9,0,1.3-0.1c0.4-0.1,0.8-0.2,1.2-0.4
		s0.7-0.4,1.1-0.8c0.3-0.3,0.5-0.6,0.7-0.9c0.2-0.4,0.3-0.7,0.5-1l-1.4-1.4l0.7-0.7L22.6,22.4z"/>
</g>
</svg>
