<?xml version="1.0" encoding="utf-8"?>
<!-- Generator: Adobe Illustrator 22.0.1, SVG Export Plug-In . SVG Version: 6.00 Build 0)  -->
<svg version="1.1" id="Layer_1" xmlns="http://www.w3.org/2000/svg" xmlns:xlink="http://www.w3.org/1999/xlink" x="0px" y="0px"
	 viewBox="0 0 500 500" style="enable-background:new 0 0 500 500;" xml:space="preserve">
<style type="text/css">
	.st0{fill:url(#SVGID_1_);}
</style>
<linearGradient id="SVGID_1_" gradientUnits="userSpaceOnUse" x1="109.1964" y1="47.5135" x2="360.9899" y2="483.6326">
	<stop  offset="0" style="stop-color:#A90329"/>
	<stop  offset="1" style="stop-color:#6D0019"/>
</linearGradient>
<path class="st0" d="M31.9,403.5c0,35.2,28.4,63.6,63.6,63.6c17.5,0,33.9-6.6,45.4-18.2l115.9-116l31.1,31.1
	c-4.2,15.3-0.2,32.3,11.9,44.5l45.1,45.1c18,17.9,46.8,18.1,64.5,0.4c17.7-17.7,17.5-46.5-0.4-64.5L364,344.3
	c-12.2-12.1-29.3-16.1-44.5-11.9l-31.1-31l20-20c42.5,10.7,89.4-0.5,122.6-32.9c22.8-22.4,35.4-50.7,37.1-80V167
	c0-9.9-8.2-17.9-18.3-17.9c-5,0-9.5,2-12.9,5.2l-5.4,5.3l-18.4,18c-11.5,11.3-28,17.9-45.7,17.9c-17.6,0-33.2-7.7-44.7-19.1
	c-11.4-11.5-19.2-27.2-19.2-44.8c0-17.7,6.6-34.2,17.9-45.7l18-18.4l5.3-5.4c3.2-3.4,5.2-7.9,5.2-12.9c0-10.1-8-18.3-17.9-18.3h-1.5
	c-29.3,1.7-57.7,14.3-80,37.1c-32.4,33.2-43.5,80-32.8,122.5l-20.1,20.1l-83.9-83.9v-23L59.2,76.4l-27.3,27.3l27.3,54.5h22.9
	l84,83.9L50.1,358C38.6,369.6,31.9,385.9,31.9,403.5z M77.4,398.9c0-12.5,10.2-22.7,22.7-22.7c12.5,0,22.7,10.2,22.7,22.7
	s-10.2,22.7-22.7,22.7C87.6,421.6,77.4,411.4,77.4,398.9z"/>
</svg>
